# xmcd
#
# Track frame offsets: 
#        150
#        2496
#        5949
#        20155
#        25103
#        41713
#        45471
#        52588
#        57071
#        61931
#        63563
#        78945
#        81413
#        93929
#        96772
#        107228
#        111551
#        120754
#        125654
#
# Disc length: 1902 seconds
#
# Revision: 0
# Processed by: cddbd v1.5.2PL0 Copyright (c) Steve Scherf et al.
# Submitted via: ExactAudioCopy v0.99pb5
#
DISCID=f0076c13
DTITLE=Peter Tschaikowski - Schwanensee
DYEAR=2010
DGENRE=Classical
TTITLE0=Tanz der Schwäne
TTITLE1=St. Petersburg
TTITLE2=Tanz der Schwäne
TTITLE3=Prinz Siegfried
TTITLE4=Walzer
TTITLE5=Die Nachtjagd
TTITLE6=Pas des deux
TTITLE7=Odette
TTITLE8=Pas d'action
TTITLE9=Der Ball
TTITLE10=Pas d'action
TTITLE11=Rotbart
TTITLE12=Ungarischer Tanz
TTITLE13=Die Täuschung
TTITLE14=Spanischer Tanz
TTITLE15=Die Entscheidung
TTITLE16=Neapolitanischer Tanz
TTITLE17=Der Fluch ist besiegt
TTITLE18=Mazurka
EXTD=
EXTT0=
EXTT1=
EXTT2=
EXTT3=
EXTT4=
EXTT5=
EXTT6=
EXTT7=
EXTT8=
EXTT9=
EXTT10=
EXTT11=
EXTT12=
EXTT13=
EXTT14=
EXTT15=
EXTT16=
EXTT17=
EXTT18=
PLAYORDER=
